<?xml version="1.0" encoding="UTF-8" ?>
<!DOCTYPE svg PUBLIC "-//W3C//DTD SVG 1.1//EN" "http://www.w3.org/Graphics/SVG/1.1/DTD/svg11.dtd">
<svg width="512pt" height="449pt" viewBox="0 0 512 449" version="1.1" xmlns="http://www.w3.org/2000/svg">
<g id="#FFFF00f">
<path fill="#FFFF00" opacity="1.00" d=" M 0.00 16.70 C 0.26 8.31 7.35 0.37 16.00 0.53 C 175.98 0.50 335.96 0.50 495.93 0.53 C 505.26 0.37 512.33 9.48 512.00 18.39 L 512.00 88.73 C 512.81 97.85 505.48 107.08 496.06 106.95 C 336.34 107.01 176.62 106.95 16.91 106.98 C 8.38 107.55 0.64 100.41 0.00 91.98 L 0.00 16.70 Z" />
<path fill="#FFFF00" opacity="1.00" d=" M 0.00 187.11 C 0.40 178.85 7.39 171.10 15.91 171.20 C 175.96 171.17 336.02 171.17 496.08 171.21 C 505.32 171.13 512.31 180.16 512.00 189.01 L 512.00 259.48 C 512.28 265.86 509.29 272.51 503.56 275.63 C 499.49 278.11 494.57 277.65 490.03 277.67 C 332.05 277.64 174.07 277.67 16.09 277.65 C 7.84 277.86 0.61 270.79 0.00 262.67 L 0.00 187.11 Z" />
<path fill="#FFFF00" opacity="1.00" d=" M 10.72 342.79 C 14.64 341.35 18.90 341.95 22.99 341.84 C 180.67 341.86 338.36 341.81 496.05 341.86 C 505.43 341.76 512.41 351.01 512.00 359.96 L 512.00 430.25 C 512.74 439.35 505.36 448.48 495.98 448.31 C 335.97 448.35 175.95 448.34 15.94 448.31 C 7.70 448.46 0.56 441.32 0.00 433.23 L 0.00 357.82 C 0.39 351.33 4.54 345.07 10.72 342.79 Z" />
</g>
</svg>
