<?xml version="1.0" encoding="UTF-8" ?>
<!DOCTYPE svg PUBLIC "-//W3C//DTD SVG 1.1//EN" "http://www.w3.org/Graphics/SVG/1.1/DTD/svg11.dtd">
<svg width="320pt" height="320pt" viewBox="0 0 320 320" version="1.1" xmlns="http://www.w3.org/2000/svg">
<g id="#FFFF00ff">
<path fill="#FFFF00" opacity="1.00" d=" M 63.04 0.00 L 63.95 0.00 C 96.02 31.94 127.97 64.01 160.00 96.00 C 191.98 64.00 224.00 32.04 255.95 0.01 L 255.01 0.00 L 255.95 0.00 C 277.36 21.26 298.60 42.68 319.99 63.95 L 320.00 63.02 L 320.00 63.95 C 288.06 96.02 255.99 127.97 224.00 160.00 C 256.00 191.97 287.95 223.99 319.97 255.93 L 320.00 255.09 L 320.00 256.99 L 319.99 256.03 C 298.66 277.34 277.33 298.64 256.05 319.99 L 256.99 320.00 L 256.05 320.00 C 223.98 288.06 192.03 255.99 160.00 224.00 C 128.02 256.00 96.00 287.96 64.05 319.99 L 64.99 320.00 L 64.05 320.00 C 42.64 298.75 21.40 277.32 0.01 256.05 L 0.00 256.98 L 0.00 256.05 C 31.94 223.98 64.01 192.03 96.00 160.00 C 63.99 128.03 32.07 95.98 0.00 64.07 L 0.00 64.05 C 21.25 42.64 42.68 21.41 63.94 0.01 L 63.04 0.00 Z" />
</g>
</svg>
